<svg width="1920" height="401" viewBox="0 0 1920 401" fill="none" xmlns="http://www.w3.org/2000/svg">
<path d="M631 92.1945C616.475 53.1109 590.201 27 560.177 27C516.348 27 480.498 82.6669 477.585 153.107C464.726 149.214 452.393 149.565 441.901 155.044C411.506 170.926 407.551 223.975 431.73 276.217C409.665 299.077 410.59 349.897 435.919 398.256C436.406 399.18 436.913 400.085 437.41 401H499.387C517.225 328.536 540.888 260.869 569.685 200.083C588.184 160.893 608.711 124.777 631 92.1945Z" fill="#3C3B3B"/>
<path d="M720.051 250.485C744.707 200.164 742.442 148.693 713.391 131.877C693.888 120.589 666.927 127.588 641.892 147.494C640.793 130.532 637.789 114.506 633.239 100C577.86 181.672 533.992 284.702 505 401H696.484C702.755 393.348 708.656 384.866 713.974 375.635C742.529 326.045 744.483 272.663 720.051 250.485Z" fill="#3C3B3B"/>
<path d="M893.148 317.091C886.733 306.145 870.83 305.007 852.418 312.371C857.591 291.355 856.064 273.542 846.965 266.447C836.878 258.586 820.222 266.007 804.48 283.416C810.385 264.905 812.281 246.921 810.333 233C765.158 276.637 722.309 333.666 684 401H847.536C856.906 394.961 865.226 384.993 873.017 376.775C884.209 364.976 893.921 350.75 895.802 332.549C895.802 332.518 895.807 332.487 895.812 332.456C896.363 327.135 895.77 321.572 893.142 317.085L893.148 317.091Z" fill="#918F8F"/>
<path d="M809 226.191C806.835 217.675 802.905 211.307 797.261 208.216C780.559 199.068 755.182 222.016 740.582 259.464C740.126 260.636 739.684 261.808 739.259 262.98C735.489 229.162 721.264 204 704.281 204C684.418 204 668.313 238.404 668.313 280.841C668.313 290.616 669.174 299.951 670.732 308.549C662.404 299.63 654.129 295.797 648.335 299.375C642.92 302.72 640.749 311.879 641.632 323.838C638.179 320.368 634.452 317.034 630.454 313.907C600.56 290.544 567.457 287.541 556.523 307.196C545.589 326.851 560.957 361.721 590.856 385.084L614.349 401H678.873C701.088 361.322 724.914 324.989 749.943 292.711C769.091 267.959 788.845 245.711 808.995 226.186L809 226.191Z" fill="#918F8F"/>
<path d="M809.995 232.463C809.679 230.195 809.265 228.035 808.752 226C788.66 245.546 768.962 267.812 749.869 292.596C724.905 324.908 701.153 361.28 679 401H684.074C722.254 333.453 764.97 276.238 810 232.469L809.995 232.463Z" fill="#E8F9F8"/>
<path d="M630.165 92C607.951 124.603 587.495 160.741 569.058 199.957C540.369 260.781 516.777 328.49 499 401H504.942C533.893 284.824 577.699 181.902 633 100.316C632.117 97.4826 631.165 94.7169 630.165 92Z" fill="#E8F9F8"/>
<path d="M1461 49.6419C1442.79 29.1799 1420.66 19.7666 1399.29 23.9914C1367.6 30.2604 1338.36 65.2853 1321.48 114.23C1302.84 168.286 1299.25 234.432 1296.14 297.911C1290.49 264.989 1269.27 244.868 1250.65 252.13C1232.04 259.402 1217.68 290.864 1215.37 325.09C1213.54 352.084 1218.67 379.633 1228.04 401H1318.45C1337.99 317.069 1364.17 238.745 1396.18 168.559C1415.78 125.454 1437.49 85.6596 1461 49.6322V49.6419Z" fill="#3C3B3B"/>
<path d="M1484.33 86.7966C1479.19 75.0131 1473.11 64.7087 1466.37 56C1405.02 149.353 1356.61 267.519 1325 401H1434.06C1454.54 368.111 1485.88 284.411 1495.1 249.819C1508.95 197.859 1504.11 132.062 1484.33 86.8064V86.7966Z" fill="#3C3B3B"/>
<path d="M1460.87 50C1437.46 85.9898 1415.87 125.743 1396.36 168.802C1364.5 238.915 1338.45 317.157 1319 401H1325.4C1356.84 267.611 1404.99 149.509 1466 56.2138C1464.33 54.0453 1462.62 51.974 1460.87 50Z" fill="#E8F9F8"/>
<path d="M1294.12 268.633C1278.52 259.018 1256.98 264.974 1236.96 281.936C1236.22 269.606 1234.35 257.86 1231.56 247C1192.22 290.529 1155.24 342.446 1122 401H1280.61C1285.62 394.48 1290.34 387.259 1294.58 379.396C1319.32 333.639 1319.11 284.048 1294.12 268.633Z" fill="#918F8F"/>
<path d="M1229.99 241.004C1218.94 204.15 1196.8 179 1171.28 179C1136.23 179 1107.57 226.441 1105.24 286.471C1094.96 283.146 1085.09 283.448 1076.71 288.124C1051.08 302.405 1048.95 351.887 1071.93 398.657C1072.32 399.445 1072.73 400.213 1073.13 401H1116.49C1146.21 348.173 1179.05 300.421 1214.11 259.154C1219.37 252.951 1224.66 246.914 1230 241.023L1229.99 241.004Z" fill="#918F8F"/>
<path d="M1230.29 241.01C1224.92 246.901 1219.58 252.939 1214.29 259.142C1179 300.413 1145.93 348.169 1116 401H1121.44C1154.99 342.501 1192.3 290.632 1232 247.144C1231.46 245.064 1230.88 243.013 1230.28 241L1230.29 241.01Z" fill="#E8F9F8"/>
</svg>
