<svg width="390" height="122" viewBox="0 0 390 122" fill="none" xmlns="http://www.w3.org/2000/svg">
<path d="M82.7115 29.1747C78.4748 17.7632 70.8112 10.1394 62.0536 10.1394C49.2696 10.1394 38.8128 26.3929 37.9632 46.9598C34.2124 45.8232 30.615 45.9255 27.5547 47.5253C18.6892 52.1626 17.5355 67.6518 24.5882 82.905C18.1521 89.5798 18.4221 104.418 25.81 118.538C25.9521 118.808 26.0999 119.072 26.2448 119.339H44.3225C49.5253 98.1811 56.4274 78.424 64.8269 60.6758C70.223 49.233 76.2101 38.6882 82.7115 29.1747Z" fill="#3C3B3B"/>
<path d="M108.913 75.469C116.119 60.8011 115.457 45.7979 106.967 40.8963C101.267 37.6058 93.387 39.646 86.0701 45.4484C85.749 40.5041 84.871 35.8327 83.5412 31.6045C67.3559 55.4107 54.5349 85.4428 46.0615 119.342H102.025C103.858 117.112 105.583 114.639 107.137 111.948C115.483 97.4937 116.054 81.9335 108.913 75.469Z" fill="#3C3B3B"/>
<path d="M82.7114 29.1748C76.21 38.6882 70.223 49.2331 64.8269 60.6759C56.4302 78.424 49.5253 98.1811 44.3225 119.339H46.0615C54.5349 85.4397 67.3559 55.4077 83.5412 31.6015C83.2826 30.7746 83.0041 29.9676 82.7114 29.1748Z" fill="#E8F9F8"/>
<path d="M343.452 16.7773C338.13 10.8044 331.66 8.05666 325.412 9.28988C316.148 11.1198 307.601 21.3436 302.668 35.6308C297.218 51.4097 296.169 70.7179 295.26 89.2474C293.606 79.6374 287.403 73.764 281.962 75.8837C276.52 78.0064 272.323 87.1901 271.647 97.1809C271.113 105.06 272.613 113.102 275.352 119.339H301.781C307.493 94.8395 315.145 71.9767 324.505 51.4893C330.234 38.907 336.579 27.2909 343.452 16.7744V16.7773Z" fill="#3C3B3B"/>
<path d="M350.201 27.5864C348.698 24.1453 346.922 21.1362 344.955 18.593C327.034 45.8546 312.892 80.362 303.66 119.342H335.516C341.5 109.738 350.653 85.2949 353.346 75.1933C357.393 60.0195 355.978 40.8052 350.201 27.5893V27.5864Z" fill="#3C3B3B"/>
<path d="M343.452 16.7773C336.576 27.2938 330.234 38.9099 324.505 51.4922C315.145 71.9795 307.493 94.8424 301.781 119.342H303.663C312.895 80.3649 327.04 45.8546 344.958 18.5931C344.467 17.9594 343.967 17.3542 343.452 16.7773Z" fill="#E8F9F8"/>
<path d="M319.278 72.5856C313.726 69.2142 306.055 71.3026 298.929 77.2502C298.663 72.9268 298 68.8082 297.006 65C282.999 80.2633 269.835 98.4681 258 119H314.468C316.253 116.714 317.931 114.182 319.443 111.425C328.251 95.3799 328.175 77.9907 319.278 72.5856Z" fill="#918F8F"/>
<path d="M296.997 62.7851C293.059 49.8363 285.17 41 276.076 41C263.588 41 253.376 57.6684 252.545 78.7601C248.881 77.592 245.366 77.6978 242.381 79.3408C233.249 84.3584 232.487 101.744 240.677 118.177C240.815 118.454 240.961 118.723 241.103 119H256.555C267.145 100.439 278.847 83.6616 291.338 69.1621C293.211 66.9829 295.099 64.8618 297 62.7919L296.997 62.7851Z" fill="#918F8F"/>
<path d="M296.409 63.0034C294.557 65.0655 292.718 67.1786 290.892 69.3496C278.724 83.7946 267.322 100.509 257 119H258.876C270.444 98.5253 283.31 80.3713 297 65.1506C296.814 64.4224 296.615 63.7044 296.406 63L296.409 63.0034Z" fill="#E8F9F8"/>
<path d="M193.872 85.5361C191.33 81.171 185.029 80.7169 177.734 83.6538C179.783 75.2724 179.178 68.1685 175.573 65.3389C171.576 62.2039 164.977 65.1635 158.739 72.1064C161.079 64.7239 161.83 57.5519 161.058 52C143.159 69.4027 126.181 92.1468 111.002 119H175.799C179.512 116.591 182.808 112.616 185.895 109.339C190.33 104.633 194.178 98.9596 194.923 91.701C194.923 91.6886 194.925 91.6762 194.927 91.6638C195.146 89.5421 194.911 87.3234 193.87 85.534L193.872 85.5361Z" fill="#918F8F"/>
<path d="M161.002 49.7862C160.148 46.4146 158.597 43.8931 156.371 42.6694C149.781 39.0473 139.769 48.1333 134.009 62.9604C133.829 63.4245 133.655 63.8885 133.487 64.3526C132 50.9628 126.387 41 119.687 41C111.85 41 105.496 54.6218 105.496 71.4243C105.496 75.2948 105.836 78.9908 106.451 82.3952C103.165 78.8635 99.9004 77.3461 97.6144 78.7629C95.478 80.0873 94.6218 83.7135 94.9701 88.4484C93.6079 87.0748 92.1372 85.7545 90.56 84.5163C78.7657 75.266 65.7056 74.0772 61.3918 81.8593C57.0781 89.6414 63.1411 103.448 74.9374 112.698L84.2061 119H109.663C118.427 103.29 127.827 88.9043 137.702 76.1243C145.256 66.3238 153.05 57.515 161 49.7842L161.002 49.7862Z" fill="#918F8F"/>
<path d="M161 52.5484C160.875 51.6539 160.71 50.8024 160.507 50C152.531 57.7067 144.712 66.486 137.133 76.258C127.224 88.9981 117.795 103.339 109.002 119H111.016C126.172 92.3674 143.127 69.8082 161.002 52.5505L161 52.5484Z" fill="#E8F9F8"/>
</svg>
