<svg xmlns="http://www.w3.org/2000/svg" width="150" height="29" viewBox="0 0 150 29" fill="none">
  <path d="M28.5126 12.5767C28.5126 7.41939 32.2332 3.25671 37.4274 3.25671C42.7688 3.25671 46.0842 7.41939 46.0842 12.8714V13.6818H32.0122C32.2701 16.7025 34.4803 19.2075 38.0536 19.2075C39.9323 19.2075 41.9952 18.4707 43.3214 17.1077L44.8686 19.2812C43.1004 21.0125 40.5954 21.9335 37.7221 21.9335C32.4174 21.9335 28.5126 18.176 28.5126 12.5767ZM37.4274 5.98271C33.8541 5.98271 32.1595 8.85606 31.9754 11.2874H42.8425C42.7688 8.92974 41.1848 5.98271 37.4274 5.98271Z" fill="#E8F9F8"/>
  <path d="M53.8412 21.4914L46.5105 3.69877H50.0469L55.6094 17.6603L61.1719 3.69877H64.7452L57.4145 21.4914H53.8412Z" fill="#E8F9F8"/>
  <path d="M65.2267 12.5767C65.2267 7.41939 68.9473 3.25671 74.1414 3.25671C79.4829 3.25671 82.7983 7.41939 82.7983 12.8714V13.6818H68.7263C68.9841 16.7025 71.1944 19.2075 74.7677 19.2075C76.6464 19.2075 78.7093 18.4707 80.0355 17.1077L81.5827 19.2812C79.8144 21.0125 77.3095 21.9335 74.4361 21.9335C69.1315 21.9335 65.2267 18.176 65.2267 12.5767ZM74.1414 5.98271C70.5682 5.98271 68.8736 8.85606 68.6894 11.2874H79.5566C79.4829 8.92974 77.8989 5.98271 74.1414 5.98271Z" fill="#E8F9F8"/>
  <path d="M85.84 21.4914V3.69877H89.1554V6.42477C90.5184 4.65655 92.6182 3.29355 94.9758 3.29355V6.64579C94.6443 6.57212 94.2759 6.53528 93.8338 6.53528C92.1761 6.53528 89.929 7.78777 89.1554 9.11393V21.4914H85.84Z" fill="#E8F9F8"/>
  <path d="M99.4292 28.2696H97.5136V3.69877H99.4292V6.49844C100.682 4.69339 102.966 3.25671 105.618 3.25671C110.37 3.25671 113.575 6.86682 113.575 12.5767C113.575 18.2497 110.37 21.9335 105.618 21.9335C103.113 21.9335 100.866 20.6442 99.4292 18.6181V28.2696ZM111.512 12.5767C111.512 8.26666 109.265 4.98809 105.286 4.98809C102.818 4.98809 100.461 6.4616 99.4292 8.15614V16.9604C100.461 18.6549 102.818 20.2021 105.286 20.2021C109.265 20.2021 111.512 16.8867 111.512 12.5767Z" fill="#E8F9F8"/>
  <path d="M128.727 21.4914V19.3917C127.143 21.1231 125.153 21.9335 122.685 21.9335C119.628 21.9335 116.46 19.8337 116.46 16.0026C116.46 12.1346 119.591 10.1085 122.685 10.1085C125.153 10.1085 127.18 10.919 128.727 12.6504V9.04025C128.727 6.38793 126.59 4.95125 123.938 4.95125C121.728 4.95125 119.996 5.72485 118.375 7.56674L117.307 6.24058C119.149 4.25134 121.212 3.25671 124.159 3.25671C127.769 3.25671 130.642 4.98809 130.642 8.96658V21.4914H128.727ZM128.727 17.9918V14.087C127.474 12.4662 125.485 11.6189 123.348 11.6189C120.401 11.6189 118.486 13.4976 118.486 16.0394C118.486 18.5444 120.401 20.4231 123.348 20.4231C125.485 20.4231 127.474 19.6127 128.727 17.9918Z" fill="#E8F9F8"/>
  <path d="M134.675 26.6856C135.081 26.8698 135.781 26.9803 136.223 26.9803C137.401 26.9803 138.212 26.5014 138.912 24.8068L140.312 21.6388L132.797 3.69877H134.933L141.417 19.2443L147.827 3.69877H150L140.791 25.3962C139.833 27.6434 138.322 28.7116 136.223 28.7116C135.633 28.7116 134.823 28.6011 134.344 28.4538L134.675 26.6856Z" fill="#E8F9F8"/>
  <path fill-rule="evenodd" clip-rule="evenodd" d="M20.5893 2.76026C20.8915 2.03384 21.0471 1.25527 21.0471 0.468994H15.0338V6.45637C15.8234 6.45637 16.6054 6.3015 17.335 6.00061C18.0645 5.69972 18.7274 5.25869 19.2858 4.70271C19.8442 4.14673 20.2871 3.48669 20.5893 2.76026ZM15.0329 24.4186H0L2.86546 18.4317H15.0329V24.4186ZM7.16427 9.45007L4.2983 15.438H15.0329V9.45007H7.16427ZM15.0329 6.45638V0.469126H11.4627L8.59711 6.45638H15.0329ZM21.0471 9.45066C21.0471 10.2369 20.8915 11.0155 20.5893 11.7419C20.2871 12.4683 19.8442 13.1284 19.2858 13.6844C18.7274 14.2404 18.0645 14.6814 17.3349 14.9823C16.6054 15.2832 15.8234 15.438 15.0338 15.438V9.45066H21.0471ZM20.5893 20.7228C20.8915 19.9963 21.0471 19.2178 21.0471 18.4315H15.0338V24.4189C15.8234 24.4189 16.6054 24.264 17.3349 23.9631C18.0645 23.6622 18.7274 23.2212 19.2858 22.6652C19.8442 22.1092 20.2871 21.4492 20.5893 20.7228Z" fill="url(#paint0_linear_110_507)"/>
  <defs>
    <linearGradient id="paint0_linear_110_507" x1="3.02509" y1="24.1852" x2="22.4141" y2="3.49375" gradientUnits="userSpaceOnUse">
      <stop stop-color="#9FE5BC"/>
      <stop offset="1" stop-color="#5FC6CA"/>
    </linearGradient>
  </defs>
</svg>