<svg width="250" height="48" viewBox="0 0 250 48" fill="none" xmlns="http://www.w3.org/2000/svg">
<rect width="250" height="48" fill="#1E1E1E"/>
<g id="Base">
<rect width="1299" height="10291" transform="translate(-226 -1291)" fill="#131313"/>
<g id="Frame 1645">
<g id="Frame 1644">
<g id="Frame 1673">
<g id="Frame 1672">
<g id="Logo">
<g id="Size=Desktop">
<g id="everpay">
<path d="M47.521 20.6485C47.521 12.053 53.7221 5.11523 62.3789 5.11523C71.2814 5.11523 76.8071 12.053 76.8071 21.1397V22.4904H53.3537C53.7835 27.5249 57.4672 31.6999 63.4227 31.6999C66.5539 31.6999 69.9921 30.4719 72.2024 28.2003L74.781 31.8227C71.834 34.7083 67.659 36.2432 62.8701 36.2432C54.029 36.2432 47.521 29.9808 47.521 20.6485ZM62.3789 9.65856C56.4235 9.65856 53.5993 14.4475 53.2923 18.4996H71.4042C71.2814 14.5703 68.6414 9.65856 62.3789 9.65856Z" fill="#E8F9F8"/>
<path d="M89.7353 35.5064L77.5175 5.85199H83.4115L92.6824 29.1212L101.953 5.85199H107.909L95.6908 35.5064H89.7353Z" fill="#E8F9F8"/>
<path d="M108.711 20.6485C108.711 12.053 114.912 5.11523 123.569 5.11523C132.472 5.11523 137.997 12.053 137.997 21.1397V22.4904H114.544C114.974 27.5249 118.657 31.6999 124.613 31.6999C127.744 31.6999 131.182 30.4719 133.392 28.2003L135.971 31.8227C133.024 34.7083 128.849 36.2432 124.06 36.2432C115.219 36.2432 108.711 29.9808 108.711 20.6485ZM123.569 9.65856C117.614 9.65856 114.789 14.4475 114.482 18.4996H132.594C132.472 14.5703 129.831 9.65856 123.569 9.65856Z" fill="#E8F9F8"/>
<path d="M143.067 35.5064V5.85199H148.592V10.3953C150.864 7.4483 154.364 5.17663 158.293 5.17663V10.7637C157.74 10.6409 157.126 10.5795 156.39 10.5795C153.627 10.5795 149.882 12.667 148.592 14.8773V35.5064H143.067Z" fill="#E8F9F8"/>
<path d="M165.715 46.8034H162.523V5.85199H165.715V10.5181C167.803 7.50969 171.609 5.11523 176.03 5.11523C183.95 5.11523 189.291 11.1321 189.291 20.6485C189.291 30.1036 183.95 36.2432 176.03 36.2432C171.855 36.2432 168.11 34.0943 165.715 30.7175V46.8034ZM185.853 20.6485C185.853 13.4651 182.108 8.00086 175.477 8.00086C171.364 8.00086 167.434 10.4567 165.715 13.281V27.9547C167.434 30.7789 171.364 33.3576 175.477 33.3576C182.108 33.3576 185.853 27.8319 185.853 20.6485Z" fill="#E8F9F8"/>
<path d="M214.545 35.5064V32.0068C211.905 34.8925 208.589 36.2432 204.476 36.2432C199.38 36.2432 194.1 32.7436 194.1 26.3584C194.1 19.9118 199.318 16.535 204.476 16.535C208.589 16.535 211.966 17.8857 214.545 20.7713V14.7545C214.545 10.3339 210.984 7.93947 206.563 7.93947C202.879 7.93947 199.994 9.22879 197.292 12.2986L195.512 10.0883C198.582 6.77294 202.02 5.11523 206.931 5.11523C212.948 5.11523 217.737 8.00086 217.737 14.6317V35.5064H214.545ZM214.545 29.6738V23.1658C212.457 20.4643 209.142 19.0522 205.581 19.0522C200.669 19.0522 197.476 22.1834 197.476 26.4198C197.476 30.5947 200.669 33.7259 205.581 33.7259C209.142 33.7259 212.457 32.3752 214.545 29.6738Z" fill="#E8F9F8"/>
<path d="M224.459 44.1633C225.134 44.4703 226.301 44.6545 227.038 44.6545C229.002 44.6545 230.353 43.8563 231.52 41.0321L233.853 35.752L221.328 5.85199H224.889L235.695 31.7613L246.378 5.85199H250L234.651 42.0144C233.055 45.7596 230.537 47.5401 227.038 47.5401C226.055 47.5401 224.705 47.3559 223.907 47.1103L224.459 44.1633Z" fill="#E8F9F8"/>
</g>
<path id="Union" fill-rule="evenodd" clip-rule="evenodd" d="M34.3155 4.28778C34.8192 3.07707 35.0784 1.77945 35.0784 0.468994H25.0563L25.0563 10.448C26.3724 10.448 27.6756 10.1898 28.8916 9.68835C30.1075 9.18686 31.2124 8.45182 32.143 7.52519C33.0737 6.59855 33.8119 5.49848 34.3155 4.28778ZM25.0549 40.385H0L4.77573 30.4069H25.0549V40.385ZM11.9404 15.4374L7.1638 25.4174H25.0549V15.4374H11.9404ZM25.0549 10.448V0.469123H19.1046L14.3285 10.448H25.0549ZM35.0784 15.4384C35.0784 16.7489 34.8192 18.0465 34.3155 19.2572C33.8119 20.4679 33.0736 21.568 32.143 22.4946C31.2124 23.4213 30.1075 24.1563 28.8916 24.6578C27.6756 25.1593 26.3724 25.4174 25.0563 25.4174L25.0563 15.4384H35.0784ZM34.3155 34.2253C34.8192 33.0146 35.0784 31.7169 35.0784 30.4065H25.0563L25.0563 40.3854C26.3724 40.3854 27.6756 40.1273 28.8916 39.6258C30.1075 39.1244 31.2124 38.3893 32.143 37.4627C33.0736 36.536 33.8119 35.436 34.3155 34.2253Z" fill="url(#paint0_linear_0_1)"/>
</g>
<rect x="-104.5" y="-81.031" width="1056" height="212" rx="4.5" stroke="#9747FF" stroke-dasharray="10 5"/>
</g>
</g>
</g>
</g>
</g>
</g>
<defs>
<linearGradient id="paint0_linear_0_1" x1="5.04181" y1="39.996" x2="37.3568" y2="5.51026" gradientUnits="userSpaceOnUse">
<stop stop-color="#9FE5BC"/>
<stop offset="1" stop-color="#5FC6CA"/>
</linearGradient>
</defs>
</svg>
